<svg width="12" height="12" viewBox="0 0 12 12" fill="none" xmlns="http://www.w3.org/2000/svg">
<path d="M2.79567 11.6237H9.21959C9.53891 11.6233 9.84514 11.4963 10.0709 11.2705C10.2967 11.0447 10.4237 10.7385 10.4241 10.4192V6.00275C10.4237 5.68343 10.2967 5.3772 10.0709 5.15146C9.84513 4.92562 9.53888 4.79863 9.21959 4.79826H8.8181V3.19228C8.8181 2.18818 8.28243 1.26036 7.41286 0.758306C6.54329 0.256346 5.47197 0.256346 4.6024 0.758306C3.73283 1.26036 3.19717 2.18818 3.19717 3.19228V4.79826H2.79567C2.47636 4.79862 2.17012 4.92561 1.94439 5.15146C1.71855 5.37722 1.59155 5.68346 1.59119 6.00275V10.4192C1.59155 10.7385 1.71854 11.0447 1.94439 11.2705C2.17014 11.4963 2.47638 11.6233 2.79567 11.6237ZM6.30864 8.81321C6.30864 8.97955 6.17385 9.11434 6.00752 9.11434C5.84118 9.11434 5.7064 8.97955 5.7064 8.81321V7.60873C5.7064 7.4424 5.84118 7.30761 6.00752 7.30761C6.17385 7.30761 6.30864 7.4424 6.30864 7.60873V8.81321ZM4.00016 3.19228C4.00016 2.47505 4.38275 1.81233 5.00389 1.45376C5.62504 1.0952 6.39022 1.0952 7.01137 1.45376C7.63252 1.81233 8.01511 2.47508 8.01511 3.19228V4.79826H4.00016V3.19228Z" fill="#312C21"/>
</svg>
