<svg width="26" height="26" viewBox="0 0 26 26" fill="none" xmlns="http://www.w3.org/2000/svg">
<g clip-path="url(#clip0_1_236)">
<path d="M24.9367 19.1455L21.3592 15.5681C20.0816 14.2904 17.9096 14.8015 17.3985 16.4624C17.0152 17.6123 15.7376 18.2512 14.5877 17.9956C12.0324 17.3568 8.58269 14.0349 7.94387 11.3518C7.56057 10.2019 8.32716 8.9242 9.47705 8.54096C11.138 8.02989 11.6491 5.85788 10.3714 4.58023L6.79398 1.0028C5.77186 0.108442 4.23867 0.108442 3.34431 1.0028L0.916773 3.43034C-1.51077 5.98565 1.1723 12.7572 7.17728 18.7622C13.1822 24.7672 19.9538 27.578 22.5091 25.0227L24.9367 22.5951C25.8311 21.573 25.8311 20.0398 24.9367 19.1455Z" fill="white"/>
</g>
<defs>
<clipPath id="clip0_1_236">
<rect width="25.6349" height="25.6349" fill="white" transform="translate(0 0.333374)"/>
</clipPath>
</defs>
</svg>
