<svg width="42" height="44" viewBox="0 0 42 44" fill="none" xmlns="http://www.w3.org/2000/svg">
<path d="M5.852 42.168L5.322 43.016L5.852 42.168ZM2.108 37.904L1.19702 38.3165L1.20004 38.3231L2.108 37.904ZM2.056 6.236L2.97337 6.6341L2.97602 6.62786L2.056 6.236ZM5.748 1.868L6.278 2.716H6.278L5.748 1.868ZM18.436 1.868L17.8979 2.71096L17.906 2.716L18.436 1.868ZM22.128 6.236L21.208 6.62787L21.2107 6.63409L22.128 6.236ZM22.076 37.904L22.984 38.3231L22.987 38.3165L22.076 37.904ZM18.332 42.168L18.862 43.016L18.332 42.168ZM14.172 35.772L13.355 35.1953L14.172 35.772ZM15.004 33.692L15.9892 33.8633L15.9904 33.8564L15.004 33.692ZM15.004 10.448L14.0117 10.572L14.0143 10.5923L14.0176 10.6124L15.004 10.448ZM14.224 8.316L13.3919 8.8707L13.3993 8.88179L13.407 8.89268L14.224 8.316ZM10.012 8.316L9.20127 7.73047L9.19503 7.73932L10.012 8.316ZM9.18 10.448L8.19361 10.2836L8.19025 10.3037L8.18772 10.324L9.18 10.448ZM9.232 33.692L8.24558 33.8564L8.24679 33.8633L9.232 33.692ZM10.116 35.772L10.9104 35.1646L10.116 35.772ZM12.144 42.728C9.74728 42.728 7.84712 42.2357 6.382 41.32L5.322 43.016C7.18489 44.1803 9.47939 44.728 12.144 44.728V42.728ZM6.382 41.32C4.8851 40.3844 3.76742 39.1131 3.01596 37.4849L1.20004 38.3231C2.11258 40.3002 3.4909 41.8716 5.322 43.016L6.382 41.32ZM3.01895 37.4915C2.25553 35.8056 1.86 33.8358 1.86 31.56H-0.14C-0.14 34.0682 0.296466 36.3277 1.19705 38.3165L3.01895 37.4915ZM1.86 31.56V12.684H-0.14V31.56H1.86ZM1.86 12.684C1.86 10.3291 2.2415 8.32052 2.97334 6.63409L1.13866 5.83791C0.275837 7.82614 -0.14 10.1162 -0.14 12.684H1.86ZM2.97602 6.62786C3.69627 4.93685 4.79434 3.64328 6.278 2.716L5.218 1.02C3.37366 2.17271 2.0104 3.79115 1.13598 5.84414L2.97602 6.62786ZM6.278 2.716C7.73924 1.80272 9.67198 1.308 12.144 1.308V-0.692001C9.41603 -0.692001 7.08476 -0.146723 5.218 1.02L6.278 2.716ZM12.144 1.308C14.5796 1.308 16.474 1.80199 17.898 2.71092L18.974 1.02508C17.1394 -0.145994 14.839 -0.692001 12.144 -0.692001V1.308ZM17.906 2.716C19.3897 3.64328 20.4877 4.93685 21.208 6.62786L23.048 5.84414C22.1736 3.79115 20.8103 2.17271 18.966 1.02L17.906 2.716ZM21.2107 6.63409C21.9425 8.32052 22.324 10.3291 22.324 12.684H24.324C24.324 10.1162 23.9082 7.82614 23.0453 5.83791L21.2107 6.63409ZM22.324 12.684V31.56H24.324V12.684H22.324ZM22.324 31.56C22.324 33.8358 21.9285 35.8056 21.165 37.4915L22.987 38.3165C23.8875 36.3277 24.324 34.0682 24.324 31.56H22.324ZM21.168 37.4849C20.4166 39.1131 19.2989 40.3844 17.802 41.32L18.862 43.016C20.6931 41.8716 22.0714 40.3002 22.984 38.3231L21.168 37.4849ZM17.802 41.32C16.3328 42.2382 14.4653 42.728 12.144 42.728V44.728C14.7454 44.728 17.0032 44.1778 18.862 43.016L17.802 41.32ZM12.144 37.656C13.2979 37.656 14.3314 37.2803 14.989 36.3487L13.355 35.1953C13.1806 35.4424 12.8621 35.656 12.144 35.656V37.656ZM14.989 36.3487C15.5003 35.6243 15.8283 34.7887 15.9892 33.8633L14.0188 33.5207C13.9024 34.19 13.6757 34.741 13.355 35.1953L14.989 36.3487ZM15.9904 33.8564C16.1363 32.9813 16.212 32.1627 16.212 31.404H14.212C14.212 32.032 14.1491 32.7387 14.0176 33.5276L15.9904 33.8564ZM16.212 31.404V12.84H14.212V31.404H16.212ZM16.212 12.84C16.212 12.0168 16.1372 11.1643 15.9904 10.2836L14.0176 10.6124C14.1482 11.3957 14.212 12.1378 14.212 12.84H16.212ZM15.9963 10.324C15.8752 9.35555 15.566 8.48314 15.041 7.73932L13.407 8.89268C13.714 9.32752 13.9248 9.87645 14.0117 10.572L15.9963 10.324ZM15.0561 7.7613C14.4008 6.77844 13.3388 6.38 12.144 6.38V8.38C12.8905 8.38 13.2152 8.60555 13.3919 8.8707L15.0561 7.7613ZM12.144 6.38C10.9456 6.38 9.88868 6.77878 9.20132 7.73051L10.8227 8.90149C11.0367 8.60522 11.4011 8.38 12.144 8.38V6.38ZM9.19503 7.73932C8.67874 8.47073 8.35284 9.32818 8.19361 10.2836L10.1664 10.6124C10.2845 9.90382 10.5133 9.33993 10.829 8.89268L9.19503 7.73932ZM8.18772 10.324C8.07908 11.1931 8.024 12.032 8.024 12.84H10.024C10.024 12.1226 10.0729 11.3669 10.1723 10.572L8.18772 10.324ZM8.024 12.84V31.404H10.024V12.84H8.024ZM8.024 31.404C8.024 32.1627 8.09975 32.9813 8.24561 33.8564L10.2184 33.5276C10.0869 32.7387 10.024 32.032 10.024 31.404H8.024ZM8.24679 33.8633C8.41048 34.8046 8.76449 35.6509 9.32164 36.3794L10.9104 35.1646C10.5662 34.7145 10.3309 34.1741 10.2172 33.5207L8.24679 33.8633ZM9.32164 36.3794C10.0027 37.27 11.0059 37.656 12.144 37.656V35.656C11.4795 35.656 11.1307 35.4526 10.9104 35.1646L9.32164 36.3794ZM33.5664 43H32.5664V44H33.5664V43ZM33.5664 9.2H34.5664V7.50048L33.0807 8.32584L33.5664 9.2ZM32.2664 9.772L32.5826 10.7207L32.6002 10.7148L32.6175 10.7083L32.2664 9.772ZM30.5504 10.396L30.8666 11.3447L30.8899 11.3369L30.9128 11.328L30.5504 10.396ZM28.7824 11.02L29.0807 11.9745L29.1073 11.9661L29.1335 11.9563L28.7824 11.02ZM27.4824 11.488H26.4824V13.0268L27.8885 12.4018L27.4824 11.488ZM27.4824 5.56L27.0352 4.66557L26.4824 4.94196V5.56H27.4824ZM29.1464 4.728L28.7164 3.82514L28.7078 3.82927L28.6992 3.83357L29.1464 4.728ZM31.4344 3.584L31.8969 4.47058L31.8969 4.47058L31.4344 3.584ZM33.6704 2.232L33.1157 1.39995L33.1062 1.40625L33.0969 1.41277L33.6704 2.232ZM35.3344 0.879997V-0.120003H34.8945L34.5972 0.204273L35.3344 0.879997ZM41.5744 0.879997H42.5744V-0.120003H41.5744V0.879997ZM41.5744 43V44H42.5744V43H41.5744ZM34.5664 43V9.2H32.5664V43H34.5664ZM33.0807 8.32584C32.8308 8.46467 32.4495 8.63531 31.9153 8.83567L32.6175 10.7083C33.1926 10.4927 33.6779 10.282 34.052 10.0742L33.0807 8.32584ZM31.9501 8.82331C31.4117 9.00281 30.824 9.21663 30.1879 9.46399L30.9128 11.328C31.5247 11.09 32.0811 10.8879 32.5826 10.7207L31.9501 8.82331ZM30.2341 9.44732C29.5997 9.6588 28.9986 9.8709 28.4312 10.0837L29.1335 11.9563C29.6754 11.7531 30.2531 11.5492 30.8666 11.3447L30.2341 9.44732ZM28.4841 10.0655C27.9143 10.2436 27.4393 10.4128 27.0762 10.5742L27.8885 12.4018C28.1494 12.2858 28.5411 12.1431 29.0807 11.9745L28.4841 10.0655ZM28.4824 11.488V5.56H26.4824V11.488H28.4824ZM27.9296 6.45443C28.3456 6.24643 28.9003 5.96909 29.5936 5.62242L28.6992 3.83357C28.0058 4.18024 27.4512 4.45757 27.0352 4.66557L27.9296 6.45443ZM29.5763 5.63086C30.3164 5.27841 31.09 4.89158 31.8969 4.47058L30.9718 2.69741C30.184 3.10842 29.4323 3.48425 28.7164 3.82514L29.5763 5.63086ZM31.8969 4.47058C32.7303 4.0358 33.5129 3.56288 34.2438 3.05123L33.0969 1.41277C32.4412 1.87178 31.7331 2.3002 30.9718 2.69741L31.8969 4.47058ZM34.2251 3.06405C34.9876 2.55568 35.6147 2.05403 36.0715 1.55572L34.5972 0.204273C34.2913 0.537964 33.8091 0.937654 33.1157 1.39995L34.2251 3.06405ZM35.3344 1.88H41.5744V-0.120003H35.3344V1.88ZM40.5744 0.879997V43H42.5744V0.879997H40.5744ZM41.5744 42H33.5664V44H41.5744V42Z" fill="#312C21"/>
</svg>
