<svg width="187" height="60" viewBox="0 0 187 60" fill="none" xmlns="http://www.w3.org/2000/svg">
<path d="M0.0656738 28.6587H18.4002V41.0179H0.0656738V28.6587Z" fill="white"/>
<path d="M19.8069 28.6587H38.1414V41.0179H19.8069V28.6587Z" fill="white"/>
<path d="M0.0656738 14.5797H18.4002V26.9311H0.0656738V14.5797Z" fill="white"/>
<path d="M19.8069 14.5797H38.1414V26.9311H19.8069V14.5797Z" fill="white"/>
<path d="M0 42.2266H38.3575V43.9625H0V42.2266Z" fill="#FFC501"/>
<path d="M0.0327148 43.9148H5.86434V46.8827H0.0327148V43.9148Z" fill="#FFC501"/>
<path d="M32.5105 43.9148H38.3584V46.8827H32.5105V43.9148Z" fill="#FFC501"/>
<path d="M17.4692 43.9148H21.0131V46.8827H17.4692V43.9148Z" fill="#FFC501"/>
<path d="M56.2737 47.1315L56.8269 15.1254H62.8725L67.4165 37.2926L72.1582 15.1254H78.0062L78.5989 47.1315H74.2524L73.7782 24.8853L69.2342 47.1315H65.7175L61.0944 24.8063L60.6597 47.1315H56.2737ZM92.0184 47.5661C89.753 47.5661 87.9485 47.1446 86.6051 46.3017C85.2616 45.4587 84.3001 44.247 83.7206 42.6664C83.141 41.0859 82.8513 39.2156 82.8513 37.0555V25.0828C82.8513 22.9228 83.141 21.0788 83.7206 19.5509C84.3001 17.9967 85.2616 16.8113 86.6051 15.9947C87.9485 15.1781 89.753 14.7698 92.0184 14.7698C94.3366 14.7698 96.1542 15.1781 97.4713 15.9947C98.8148 16.8113 99.7763 17.9967 100.356 19.5509C100.962 21.0788 101.265 22.9228 101.265 25.0828V37.095C101.265 39.2287 100.962 41.0859 100.356 42.6664C99.7763 44.2206 98.8148 45.4324 97.4713 46.3017C96.1542 47.1446 94.3366 47.5661 92.0184 47.5661ZM92.0184 43.2591C92.9931 43.2591 93.7043 43.0484 94.1522 42.6269C94.6263 42.2054 94.9424 41.6259 95.1005 40.8883C95.2585 40.1507 95.3376 39.3473 95.3376 38.478V23.7394C95.3376 22.8437 95.2585 22.0403 95.1005 21.329C94.9424 20.6178 94.6263 20.0646 94.1522 19.6695C93.7043 19.248 92.9931 19.0373 92.0184 19.0373C91.0964 19.0373 90.3984 19.248 89.9242 19.6695C89.45 20.0646 89.1339 20.6178 88.9759 21.329C88.8178 22.0403 88.7388 22.8437 88.7388 23.7394V38.478C88.7388 39.3473 88.8046 40.1507 88.9364 40.8883C89.0944 41.6259 89.4105 42.2054 89.8847 42.6269C90.3588 43.0484 91.0701 43.2591 92.0184 43.2591ZM105.669 47.1315V15.1254H111.478V28.5205H117.998V15.1254H123.846V47.1315H117.998V32.6695H111.478V47.1315H105.669ZM128.743 47.1315V15.1254H142.178V19.2348H134.591V28.4415H140.558V32.5114H134.591V43.1011H142.257V47.1315H128.743ZM145.723 47.1315V15.1254H151.532V28.56H152.717L157.894 15.1254H163.702L157.617 30.2196L164.176 47.1315H158.249L152.717 32.3929H151.532V47.1315H145.723ZM175.636 47.5661C173.291 47.5661 171.447 47.1051 170.104 46.1831C168.787 45.2612 167.865 44.0099 167.338 42.4293C166.811 40.8225 166.548 38.9785 166.548 36.8974V25.478C166.548 23.2916 166.811 21.3949 167.338 19.788C167.865 18.1811 168.787 16.943 170.104 16.0737C171.447 15.2044 173.291 14.7698 175.636 14.7698C177.849 14.7698 179.574 15.1517 180.812 15.9157C182.077 16.6533 182.972 17.7201 183.499 19.1163C184.026 20.5124 184.289 22.1325 184.289 23.9765V26.6634H178.678V23.8974C178.678 23.0018 178.626 22.1852 178.52 21.4476C178.441 20.71 178.191 20.1305 177.77 19.709C177.374 19.2612 176.676 19.0373 175.675 19.0373C174.674 19.0373 173.937 19.2743 173.463 19.7485C173.015 20.1963 172.725 20.8154 172.593 21.6056C172.462 22.3696 172.396 23.2389 172.396 24.2135V38.1224C172.396 39.2814 172.488 40.2429 172.672 41.0069C172.857 41.7444 173.186 42.3108 173.66 42.7059C174.161 43.0747 174.832 43.2591 175.675 43.2591C176.65 43.2591 177.335 43.0352 177.73 42.5874C178.152 42.1132 178.415 41.4942 178.52 40.7303C178.626 39.9663 178.678 39.1102 178.678 38.1619V35.2774H184.289V37.8458C184.289 39.7424 184.039 41.4283 183.539 42.9035C183.038 44.3523 182.156 45.4982 180.891 46.3412C179.653 47.1578 177.901 47.5661 175.636 47.5661Z" fill="white"/>
<mask id="mask0_1_318" style="mask-type:alpha" maskUnits="userSpaceOnUse" x="53" y="30" width="134" height="19">
<rect x="53.9424" y="30.0994" width="133.058" height="17.9808" fill="#FFC501"/>
</mask>
<g mask="url(#mask0_1_318)">
<path d="M56.2737 47.1315L56.8269 15.1254H62.8725L67.4165 37.2926L72.1582 15.1254H78.0062L78.5989 47.1315H74.2524L73.7782 24.8853L69.2342 47.1315H65.7175L61.0944 24.8063L60.6597 47.1315H56.2737ZM92.0184 47.5661C89.753 47.5661 87.9485 47.1446 86.6051 46.3017C85.2616 45.4587 84.3001 44.247 83.7206 42.6664C83.141 41.0859 82.8513 39.2156 82.8513 37.0555V25.0828C82.8513 22.9228 83.141 21.0788 83.7206 19.5509C84.3001 17.9967 85.2616 16.8113 86.6051 15.9947C87.9485 15.1781 89.753 14.7698 92.0184 14.7698C94.3366 14.7698 96.1542 15.1781 97.4713 15.9947C98.8148 16.8113 99.7763 17.9967 100.356 19.5509C100.962 21.0788 101.265 22.9228 101.265 25.0828V37.095C101.265 39.2287 100.962 41.0859 100.356 42.6664C99.7763 44.2206 98.8148 45.4324 97.4713 46.3017C96.1542 47.1446 94.3366 47.5661 92.0184 47.5661ZM92.0184 43.2591C92.9931 43.2591 93.7043 43.0484 94.1522 42.6269C94.6263 42.2054 94.9424 41.6259 95.1005 40.8883C95.2585 40.1507 95.3376 39.3473 95.3376 38.478V23.7394C95.3376 22.8437 95.2585 22.0403 95.1005 21.329C94.9424 20.6178 94.6263 20.0646 94.1522 19.6695C93.7043 19.248 92.9931 19.0373 92.0184 19.0373C91.0964 19.0373 90.3984 19.248 89.9242 19.6695C89.45 20.0646 89.1339 20.6178 88.9759 21.329C88.8178 22.0403 88.7388 22.8437 88.7388 23.7394V38.478C88.7388 39.3473 88.8046 40.1507 88.9364 40.8883C89.0944 41.6259 89.4105 42.2054 89.8847 42.6269C90.3588 43.0484 91.0701 43.2591 92.0184 43.2591ZM105.669 47.1315V15.1254H111.478V28.5205H117.998V15.1254H123.846V47.1315H117.998V32.6695H111.478V47.1315H105.669ZM128.743 47.1315V15.1254H142.178V19.2348H134.591V28.4415H140.558V32.5114H134.591V43.1011H142.257V47.1315H128.743ZM145.723 47.1315V15.1254H151.532V28.56H152.717L157.894 15.1254H163.702L157.617 30.2196L164.176 47.1315H158.249L152.717 32.3929H151.532V47.1315H145.723ZM175.636 47.5661C173.291 47.5661 171.447 47.1051 170.104 46.1831C168.787 45.2612 167.865 44.0099 167.338 42.4293C166.811 40.8225 166.548 38.9785 166.548 36.8974V25.478C166.548 23.2916 166.811 21.3949 167.338 19.788C167.865 18.1811 168.787 16.943 170.104 16.0737C171.447 15.2044 173.291 14.7698 175.636 14.7698C177.849 14.7698 179.574 15.1517 180.812 15.9157C182.077 16.6533 182.972 17.7201 183.499 19.1163C184.026 20.5124 184.289 22.1325 184.289 23.9765V26.6634H178.678V23.8974C178.678 23.0018 178.626 22.1852 178.52 21.4476C178.441 20.71 178.191 20.1305 177.77 19.709C177.374 19.2612 176.676 19.0373 175.675 19.0373C174.674 19.0373 173.937 19.2743 173.463 19.7485C173.015 20.1963 172.725 20.8154 172.593 21.6056C172.462 22.3696 172.396 23.2389 172.396 24.2135V38.1224C172.396 39.2814 172.488 40.2429 172.672 41.0069C172.857 41.7444 173.186 42.3108 173.66 42.7059C174.161 43.0747 174.832 43.2591 175.675 43.2591C176.65 43.2591 177.335 43.0352 177.73 42.5874C178.152 42.1132 178.415 41.4942 178.52 40.7303C178.626 39.9663 178.678 39.1102 178.678 38.1619V35.2774H184.289V37.8458C184.289 39.7424 184.039 41.4283 183.539 42.9035C183.038 44.3523 182.156 45.4982 180.891 46.3412C179.653 47.1578 177.901 47.5661 175.636 47.5661Z" fill="#FFC501"/>
</g>
</svg>
